HIERARCHY
ROOT Hips
{
	OFFSET -0.001795 -0.223333 0.028219
	CHANNELS 6 Xposition Yposition Zposition Zrotation Yrotation Xrotation 
	JOINT LeftUpLeg
	{
		OFFSET 0.069520 -0.091406 -0.006815
		CHANNELS 3 Zrotation Yrotation Xrotation
		JOINT LeftLeg
		{
			OFFSET 0.034277 -0.375199 -0.004496
			CHANNELS 3 Zrotation Yrotation Xrotation
			JOINT LeftFoot
			{
				OFFSET -0.013596 -0.397961 -0.043693
				CHANNELS 3 Zrotation Yrotation Xrotation
				JOINT LeftToe
				{
					OFFSET 0.026358 -0.055791 0.119288
					CHANNELS 3 Zrotation Yrotation Xrotation
					End Site
					{
						OFFSET 0.000000 0.000000 0.000000
					}
				}
			}
		}
	}
	JOINT RightUpLeg
	{
		OFFSET -0.067670 -0.090522 -0.004320
		CHANNELS 3 Zrotation Yrotation Xrotation
		JOINT RightLeg
		{
			OFFSET -0.038290 -0.382569 -0.008850
			CHANNELS 3 Zrotation Yrotation Xrotation
			JOINT RightFoot
			{
				OFFSET 0.015774 -0.398415 -0.042312
				CHANNELS 3 Zrotation Yrotation Xrotation
				JOINT RightToe
				{
					OFFSET -0.025372 -0.048144 0.123348
					CHANNELS 3 Zrotation Yrotation Xrotation
					End Site
					{
						OFFSET 0.000000 0.000000 0.000000
					}
				}
			}
		}
	}
	JOINT Spine
	{
		OFFSET -0.002533 0.108963 -0.026696
		CHANNELS 3 Zrotation Yrotation Xrotation
		JOINT Spine1
		{
			OFFSET 0.005487 0.135180 0.001092
			CHANNELS 3 Zrotation Yrotation Xrotation
			JOINT Spine2
			{
				OFFSET 0.001457 0.052922 0.025425
				CHANNELS 3 Zrotation Yrotation Xrotation
				JOINT Neck
				{
					OFFSET -0.002778 0.213870 -0.042857
					CHANNELS 3 Zrotation Yrotation Xrotation
					JOINT Head
					{
						OFFSET 0.005152 0.064970 0.051349
						CHANNELS 3 Zrotation Yrotation Xrotation
						End Site
						{
							OFFSET 0.000000 0.000000 0.000000
						}
					}
				}
				JOINT LeftShoulder
				{
					OFFSET 0.078845 0.121749 -0.034090
					CHANNELS 3 Zrotation Yrotation Xrotation
					JOINT LeftArm
					{
						OFFSET 0.090977 0.030469 -0.008868
						CHANNELS 3 Zrotation Yrotation Xrotation
						JOINT LeftForeArm
						{
							OFFSET 0.259612 -0.012772 -0.027456
							CHANNELS 3 Zrotation Yrotation Xrotation
							JOINT LeftHand
							{
								OFFSET 0.249234 0.008986 -0.001171
								CHANNELS 3 Zrotation Yrotation Xrotation
								End Site
								{
									OFFSET 0.000000 0.000000 0.000000
								}
							}
						}
					}
				}
				JOINT RightShoulder
				{
					OFFSET -0.081759 0.118833 -0.038615
					CHANNELS 3 Zrotation Yrotation Xrotation
					JOINT RightArm
					{
						OFFSET -0.096012 0.032551 -0.009143
						CHANNELS 3 Zrotation Yrotation Xrotation
						JOINT RightForeArm
						{
							OFFSET -0.253742 -0.013329 -0.021401
							CHANNELS 3 Zrotation Yrotation Xrotation
							JOINT RightHand
							{
								OFFSET -0.255298 0.007772 -0.005559
								CHANNELS 3 Zrotation Yrotation Xrotation
								End Site
								{
									OFFSET 0.000000 0.000000 0.000000
								}
							}
						}
					}
				}
			}
		}
	}
}
MOTION
Frames: 16
Frame Time: 0.050000
0.218592 0.932775 -0.226681 -0.820752 38.259936 2.011546 3.974611 -0.965999 -10.257181 -0.095073 -0.210407 3.514717 -2.491947 0.614070 6.244031 0.000000 0.000000 0.000000 -2.773814 0.243980 -9.337183 3.041360 -1.061008 7.851159 -4.338197 -10.570986 2.987095 0.000000 0.000000 0.000000 0.068046 -1.673454 16.730830 -2.007333 0.530459 1.533927 2.161500 3.536238 9.730103 3.597870 1.569591 -17.615042 0.000000 0.000000 0.000000 -21.762898 -21.418923 2.496775 -52.659855 -26.253738 6.607626 -2.519997 -38.300139 0.068528 0.000000 0.000000 0.000000 20.730984 16.730221 14.605324 57.410218 34.699464 10.739370 -13.075596 73.095284 0.390761 0.000000 0.000000 0.000000 
0.216770 0.932929 -0.228329 -0.790063 38.443014 2.135712 4.102585 -0.982029 -10.378525 -0.021165 -0.190088 3.089593 -2.714994 0.424240 6.465904 0.000000 0.000000 0.000000 -2.798194 0.239872 -9.485777 3.127948 -1.069201 7.616383 -4.383908 -10.577474 3.294820 0.000000 0.000000 0.000000 0.123041 -1.696135 16.769976 -1.937076 0.548268 1.181446 2.164074 3.368385 9.726119 3.055608 1.899360 -17.649346 0.000000 0.000000 0.000000 -21.967412 -21.301059 2.389887 -52.432681 -25.742750 6.401691 -3.178807 -38.917100 0.273751 0.000000 0.000000 0.000000 20.465992 16.661570 14.466574 57.156308 34.381892 10.518568 -13.347019 71.567481 0.096073 0.000000 0.000000 0.000000 
0.215096 0.933126 -0.229781 -0.735918 38.803814 2.291452 4.177707 -0.986028 -10.370787 -0.138048 -0.163685 2.704806 -3.005837 0.134189 6.698966 0.000000 0.000000 0.000000 -2.756567 0.239876 -9.506365 3.082497 -1.036165 7.251635 -4.328739 -10.389062 3.441695 0.000000 0.000000 0.000000 0.022254 -1.650215 16.542269 -1.725845 0.408380 1.419057 2.276457 3.193866 9.296047 2.944545 2.014191 -18.033453 0.000000 0.000000 0.000000 -22.204830 -21.239671 2.316809 -52.565279 -24.973556 6.157750 -4.226865 -39.257126 0.623023 0.000000 0.000000 0.000000 20.443258 16.710845 14.467885 56.349647 34.393622 10.292528 -14.481442 69.459436 -0.888202 0.000000 0.000000 0.000000 
0.213549 0.933185 -0.231091 -0.677033 38.924842 2.287492 4.323835 -0.966187 -10.123885 -0.304159 -0.138525 2.369596 -3.095477 -0.204255 6.488549 0.000000 0.000000 0.000000 -2.957490 0.203446 -9.419705 3.223148 -1.055921 6.986539 -4.173119 -10.088601 3.178262 0.000000 0.000000 0.000000 0.018755 -1.648544 16.524611 -1.564091 0.374360 1.157857 2.267017 3.181979 9.386798 2.642142 2.298582 -18.628642 0.000000 0.000000 0.000000 -21.963361 -21.185686 2.280700 -52.678800 -24.853947 6.081874 -5.215978 -39.401973 0.943468 0.000000 0.000000 0.000000 20.079021 16.972239 14.520100 55.834013 34.755969 10.379592 -14.571405 67.220228 -1.084175 0.000000 0.000000 0.000000 
0.212107 0.932997 -0.232409 -0.883475 38.817304 2.275897 4.725641 -0.971024 -10.068929 -0.527651 -0.107558 1.931789 -3.176748 -0.244213 6.621422 0.000000 0.000000 0.000000 -2.812858 0.231445 -9.379987 3.309247 -1.057828 6.767060 -3.930303 -9.512605 3.142780 0.000000 0.000000 0.000000 0.024001 -1.605660 16.269733 -1.478879 0.302174 1.377952 2.505393 3.369308 9.130073 2.503126 2.396407 -18.733595 0.000000 0.000000 0.000000 -22.076098 -21.369587 2.340395 -52.455620 -24.431261 5.929839 -5.338620 -39.217158 0.983747 0.000000 0.000000 0.000000 20.058148 17.557631 14.877281 54.915381 35.348862 10.422509 -14.366567 65.198627 -1.154823 0.000000 0.000000 0.000000 
0.210768 0.932392 -0.233853 -0.945843 38.485013 2.251972 4.982938 -0.955920 -9.846645 -0.783556 -0.069870 1.277488 -3.316478 -0.618192 6.504652 0.000000 0.000000 0.000000 -2.986321 0.212199 -9.281987 3.544961 -1.076842 6.326358 -3.419340 -8.308569 3.028344 0.000000 0.000000 0.000000 0.169171 -1.601528 16.149800 -1.749168 0.381551 1.693157 2.745479 3.407918 8.699018 2.225188 2.576228 -19.149219 0.000000 0.000000 0.000000 -22.199009 -21.131088 2.267986 -52.328248 -24.064854 5.806379 -5.703969 -39.094206 1.122811 0.000000 0.000000 0.000000 20.216056 18.208343 15.257970 54.031355 35.917185 10.436318 -13.663966 64.095300 -0.930142 0.000000 0.000000 0.000000 
0.209575 0.931745 -0.235464 -1.120994 38.047826 2.207533 5.311668 -0.934119 -9.483413 -0.820195 -0.044726 0.623290 -3.587057 -1.162493 6.462670 0.000000 0.000000 0.000000 -2.930159 0.231014 -9.241327 3.674239 -1.064823 5.860258 -3.343450 -8.082103 3.241235 0.000000 0.000000 0.000000 0.130373 -1.572173 16.053751 -1.667464 0.422465 1.235509 2.907027 3.524120 8.990540 1.905683 2.830751 -19.628285 0.000000 0.000000 0.000000 -22.371166 -20.942829 2.128142 -52.062611 -23.540535 5.562977 -5.559840 -38.569193 1.085116 0.000000 0.000000 0.000000 20.443616 18.586001 15.600921 53.397242 36.513669 10.478092 -12.261026 63.395096 -0.178623 0.000000 0.000000 0.000000 
0.208522 0.931436 -0.237195 -1.377697 37.886809 2.208353 5.624831 -0.940630 -9.422257 -0.957718 -0.033471 0.390969 -3.924918 -1.826199 6.421298 0.000000 0.000000 0.000000 -2.881117 0.246987 -9.501022 3.816775 -1.097213 5.853546 -3.081458 -7.408091 3.401110 0.000000 0.000000 0.000000 0.438466 -1.594091 15.911429 -1.893739 0.553024 1.039126 3.194781 3.164992 8.943155 1.326725 3.121024 -19.770582 0.000000 0.000000 0.000000 -22.488906 -20.673616 2.143406 -51.317060 -22.968830 5.231588 -5.958655 -38.113109 1.298765 0.000000 0.000000 0.000000 20.810904 18.925604 15.830693 52.698949 36.749208 10.307188 -10.914856 63.553317 0.523903 0.000000 0.000000 0.000000 
0.207788 0.931208 -0.238891 -1.543101 37.458973 2.073581 5.754636 -0.923232 -9.182674 -0.932475 -0.023527 0.076898 -4.041486 -2.222383 6.245799 0.000000 0.000000 0.000000 -2.761884 0.273046 -9.407113 3.697724 -1.023136 5.393734 -2.903333 -6.975243 3.494902 0.000000 0.000000 0.000000 0.376573 -1.589195 15.998274 -1.915608 0.585092 0.938691 3.354311 3.340172 8.939029 1.310559 3.172584 -20.160776 0.000000 0.000000 0.000000 -22.224552 -20.453072 2.084861 -50.980069 -22.628134 5.027005 -6.225367 -37.800690 1.387453 0.000000 0.000000 0.000000 20.821766 18.831842 15.767010 52.854428 37.094964 10.537537 -10.614021 63.861162 0.754582 0.000000 0.000000 0.000000 
0.207391 0.931050 -0.240412 -1.700930 37.147514 1.961033 5.807581 -0.908243 -9.000649 -0.969213 -0.017764 -0.041688 -3.879314 -1.991925 6.193659 0.000000 0.000000 0.000000 -2.687112 0.291748 -9.471041 3.650091 -1.008854 5.474515 -3.008131 -7.227631 3.520617 0.000000 0.000000 0.000000 0.447067 -1.553916 15.764229 -1.900067 0.604644 0.783509 3.448941 3.199282 9.104489 1.343653 3.133449 -20.200581 0.000000 0.000000 0.000000 -21.960831 -20.157396 2.099385 -50.503302 -22.043605 4.649032 -7.129589 -38.079678 1.746298 0.000000 0.000000 0.000000 20.920316 18.871172 15.745543 52.704403 36.732278 10.270010 -10.452341 64.889855 0.895763 0.000000 0.000000 0.000000 
0.207457 0.930802 -0.241765 -1.753329 36.741507 1.940443 5.837470 -0.891496 -8.798721 -1.113001 -0.010627 -0.099291 -3.670837 -1.939972 5.857967 0.000000 0.000000 0.000000 -2.675139 0.303390 -9.540824 3.526542 -0.963050 5.405449 -2.841780 -6.849512 3.462539 0.000000 0.000000 0.000000 0.474502 -1.511186 15.521886 -1.847013 0.600411 0.683285 3.550543 3.240899 9.085006 1.454677 3.053042 -20.171474 0.000000 0.000000 0.000000 -21.847358 -19.814809 1.991489 -49.990950 -21.098691 4.198442 -8.494867 -38.888578 2.243615 0.000000 0.000000 0.000000 21.398478 18.463534 15.650354 52.749647 36.114490 9.876765 -9.773983 65.806065 1.431902 0.000000 0.000000 0.000000 
0.207879 0.930473 -0.242995 -1.787399 36.526231 1.955870 5.666493 -0.869573 -8.613734 -1.060886 -0.007238 -0.249820 -3.525377 -2.013130 5.492959 0.000000 0.000000 0.000000 -2.666183 0.308553 -9.396332 3.397076 -0.915271 5.250162 -2.816865 -6.760733 3.665067 0.000000 0.000000 0.000000 0.322837 -1.414298 15.066056 -1.595013 0.461492 0.885693 3.569367 3.015032 8.786220 1.484279 2.972230 -20.047206 0.000000 0.000000 0.000000 -21.973288 -19.289888 1.814416 -49.348124 -19.991797 3.718135 -10.034561 -40.077030 2.868640 0.000000 0.000000 0.000000 22.104722 18.219073 15.663772 52.603835 34.828392 9.069182 -8.362386 67.065280 2.397896 0.000000 0.000000 0.000000 
0.208588 0.930276 -0.244154 -1.716723 36.391331 1.894540 5.429307 -0.848319 -8.478123 -1.090296 -0.013887 0.103745 -3.310054 -2.045929 5.026520 0.000000 0.000000 0.000000 -2.827514 0.286051 -9.440031 3.444606 -0.944709 5.573505 -2.863648 -6.908135 3.494779 0.000000 0.000000 0.000000 0.295460 -1.349297 14.687440 -1.493619 0.449215 0.666410 3.707856 2.933856 8.940438 1.668251 2.850187 -19.904850 0.000000 0.000000 0.000000 -21.934832 -18.854525 1.616544 -49.334662 -19.301249 3.401620 -12.297176 -41.817227 3.779629 0.000000 0.000000 0.000000 22.261533 17.369467 15.171384 52.694443 33.582168 8.408432 -6.774006 67.841118 3.604022 0.000000 0.000000 0.000000 
0.209442 0.929938 -0.245298 -1.684921 36.623733 1.852907 5.036791 -0.824208 -8.338808 -1.002410 -0.024967 0.379321 -3.273919 -2.238619 4.728184 0.000000 0.000000 0.000000 -2.872889 0.274115 -9.634885 3.356810 -0.960590 6.058147 -3.092689 -7.387813 3.755671 0.000000 0.000000 0.000000 0.263278 -1.282441 14.239844 -1.050305 0.259505 0.576945 3.565498 2.453151 9.256106 1.504710 2.892342 -19.667139 0.000000 0.000000 0.000000 -21.480646 -18.281904 1.470768 -49.416358 -18.884515 3.115766 -15.435289 -44.267506 5.182664 0.000000 0.000000 0.000000 22.568131 16.833765 14.900963 52.902920 32.326469 7.746488 -5.720321 67.847127 4.343674 0.000000 0.000000 0.000000 
0.210188 0.929528 -0.246553 -1.694788 36.762426 1.824801 4.896584 -0.813981 -8.270040 -1.010018 -0.031890 0.607612 -3.282815 -2.624115 4.330701 0.000000 0.000000 0.000000 -2.952835 0.258702 -9.733797 3.440710 -1.003920 6.320118 -3.130471 -7.448636 3.864107 0.000000 0.000000 0.000000 0.380258 -1.242318 13.843688 -0.853312 0.189356 0.437506 3.688720 2.221572 9.551283 1.573827 2.810140 -19.349055 0.000000 0.000000 0.000000 -21.607245 -18.233934 1.453616 -48.976238 -18.309123 2.859411 -18.550743 -47.122675 6.792397 0.000000 0.000000 0.000000 22.716656 16.247181 14.569268 52.935380 31.117404 7.091364 -5.390521 67.362091 4.533642 0.000000 0.000000 0.000000 
0.210709 0.929093 -0.248049 -1.668230 36.855467 1.867765 4.795388 -0.825115 -8.459007 -1.033472 -0.047016 1.107347 -3.161596 -2.618714 4.095866 0.000000 0.000000 0.000000 -2.987453 0.254226 -10.151503 3.346550 -1.028348 6.966739 -3.131857 -7.422407 3.927850 0.000000 0.000000 0.000000 0.484706 -1.198145 13.419908 -0.594860 0.033484 0.678491 3.623498 2.255936 9.721399 1.643669 2.785441 -19.321189 0.000000 0.000000 0.000000 -21.352677 -17.703089 1.158411 -48.851277 -18.039023 2.722306 -22.637440 -50.164143 8.977099 0.000000 0.000000 0.000000 22.800245 15.956039 14.467400 52.840796 30.939996 6.949716 -6.021130 65.459842 3.898453 0.000000 0.000000 0.000000 
